<?xml version="1.0" encoding="utf-8"?>
<!-- Generator: Adobe Illustrator 24.0.1, SVG Export Plug-In . SVG Version: 6.00 Build 0)  -->
<svg version="1.1" id="Layer_1" xmlns="http://www.w3.org/2000/svg" xmlns:xlink="http://www.w3.org/1999/xlink" x="0px" y="0px"
	 viewBox="0 0 815.9035034 811.9351196" style="enable-background:new 0 0 815.9035034 811.9351196;" xml:space="preserve">
<g>
	<path d="M815.4434814,781.9106445c-1.1443481-4.6201172-0.7557373-9.59198-3.204895-13.9191895
		c-0.210022-0.3710938-0.1661377-0.8914185-0.2193604-1.3449097c-0.5038452-4.2909546-1.526001-5.1035156-5.8192139-4.2720337
		c-5.3695679,1.0401001-10.7007446,2.2810059-16.0762329,3.2872314c-3.0465088,0.5701294-6.1534424,0.8108521-9.2233276,1.2662964
		c-1.4923096,0.2214966-3.1322021,0.2780762-4.4086914,0.9625854c-3.161438,1.6951904-6.4378052,2.1708984-9.9372559,1.8779907
		c-1.0458984-0.0875244-2.1608887-0.0283203-3.170105,0.2411499c-5.354126,1.4298706-10.692627,2.7322388-16.2423096,3.4095459
		c-9.3262939,1.1381226-18.3264771,4.0817871-27.7617188,5.0091553c-7.3780518,0.7251587-14.5935669,2.9869995-21.9279785,4.3057861
		c-6.6577148,1.1972046-13.3502197,2.5498657-20.0782471,2.927063c-10.4752197,0.5872803-21.0061035,0.7939453-31.4904785,0.4539795
		c-13.1486206-0.4264526-26.2825928-1.454834-39.4064331-2.4418335c-8.3417969-0.6273804-16.6528931-1.6591797-24.9793701-2.4951782
		c-5.5231934-0.5544434-11.0481567-1.0917969-16.5739746-1.6207275c-4.3121338-0.4129639-8.6257935-0.8120728-12.9404907-1.197876
		c-6.6539917-0.5949097-13.3922729,0.1710815-19.9918823-1.5574951c-3.1362915-0.8214722-6.4343872-1.1251831-9.6815186-1.4052124
		c-13.4186707-1.1570435-26.9086914-1.7335205-40.2486877-3.472168c-9.5429382-1.2438354-19.0611572-1.9282227-28.6445313-2.3502197
		c-3.6053772-0.1587524-7.1775818-1.03302-10.7693787-1.5494995c-2.478302-0.3565063-4.9562073-0.8403931-7.4484558-0.9529419
		c-9.7251892-0.4390869-19.4851074-0.3455811-29.0940552-2.3053589c-1.4768372-0.3012695-3.0843201-0.5464478-4.5353394-0.2848511
		c-5.1872253,0.9349976-9.7182007-0.8109131-14.2592163-2.9275513c-4.4199524-2.0604858-9.434967-9.3942261-8.5006409-14.1348267
		c1.0579224-5.3677368,3.8116455-10.0705566,8.7339783-13.0841675c0.3182983-0.1948853,0.6983948-0.3112793,1.065155-0.4014282
		c3.9146118-0.9615479,7.7848816-2.0610962,11.9249268-1.2355347c1.9196167,0.3827515,3.9425659,0.3387451,5.9183044,0.3338623
		c17.6639404-0.043396,35.3277283-0.1678467,52.9916992-0.1791992c39.9807434-0.0259399,79.9614563,0.0037842,119.9422302-0.0170898
		c1.2779541-0.0006714,2.5688477-0.2390747,3.8313599-0.482666c4.8597412-0.9376831,8.9597168-3.4227905,13.2440186-5.8303833
		c8.9375-5.022583,11.6872559-13.7160645,13.7272949-22.4429932c2.1052856-9.0060425-1.6539917-17.371521-6.4993896-24.7624512
		c-4.5739136-6.9769897-10.1474609-13.2949219-15.2150879-19.953125
		c-4.3273926-5.6856079-8.6157227-11.402832-12.8179321-17.1812744c-3.182373-4.3759766-6.4416504-8.7788086-5.3300781-14.7444458
		c0.0941772-0.5054321-0.0687256-1.0591431-0.1138306-1.590332c-0.592041-6.9783325,4.7813721-13.8853149,11.6417236-15.2870483
		c5.6571655-1.1557617,10.2373047,0.9327393,14.2005615,4.546936c3.927063,3.5811768,7.5039063,7.5435181,11.3050537,11.2664795
		c5.3174438,5.2081909,10.7579956,10.2912598,16.039917,15.5346069
		c5.7234497,5.6815796,11.3088379,11.5018311,16.9850464,17.2313232c4.9169922,4.9631348,9.9309082,9.8312378,14.7959595,14.8442383
		c2.6264648,2.7064209,5.6057739,4.3460693,9.4402466,4.3273315c17.817627-0.0869141,35.635376-0.211853,53.453125-0.213501
		c30.8410645-0.0027466,61.6819458,0.0770264,92.5229492,0.1176147c2.7850342,0.0037231,3.6269531-0.6468506,3.7081299-3.4326172
		c0.1262817-4.3353882,0.0564575-8.6774902,0.0217285-13.0164795c-0.0164185-2.0536499-0.0534058-4.1152954-0.2495728-6.1571045
		c-0.1602173-1.668457-0.9441528-2.8166504-2.9271851-2.7946167c-4.4106445,0.0490112-8.8226318-0.0223999-13.2340088-0.0206909
		c-41.0466919,0.0152588-82.0933838,0.0152588-123.1399536,0.0959473c-3.0567017,0.0060425-5.4605103-0.9263916-7.5075073-3.1220703
		c-4.1448364-4.446228-8.2790527-8.904541-12.5160522-13.2622681c-7.2162476-7.421875-14.4468384-14.831604-21.786438-22.1309204
		c-6.8939819-6.8561401-13.9443359-13.5548096-20.8984375-20.3509521c-0.5264282-0.5145874-1.1140747-1.2219849-1.1911621-1.8950195
		c-0.2802124-2.444519-0.4868164-4.9124146-0.4881592-7.3716431c-0.0259399-49.8057861-0.0194702-99.6116333-0.0223999-149.41745
		c-0.0029907-31.6046143-0.0084229-63.209259-0.0009155-94.8139038c0.0042114-17.6679688,0.0983276-35.3364258-0.0240479-53.003479
		c-0.0195313-2.8167725-0.4013062-5.9046631-1.6132813-8.3783569c-2.0514526-4.1868896-5.1289063-7.5279846-10.5846558-7.1971741
		c-3.5632935,0.216095-7.1478882,0.1479492-10.7216797,0.1022034c-3.2672729-0.0418091-4.3212891-1.1742554-4.324585-4.2310486
		c-0.0122681-11.4075928-0.0400391-22.8152618-0.0805664-34.2228241c-0.0111084-3.1296844,2.0847168-4.9559631,5.0891113-4.4142151
		c0.7391968,0.1332855,1.5057983,0.1330872,2.2608643,0.1563721c4.0182495,0.1240692,8.036377,0.2871704,12.0556641,0.3324127
		c2.2628784,0.0255127,4.5432129-0.0178528,6.7877808-0.2741394c2.0338135-0.2322693,4.0234375-0.8297119,6.0435791-1.2068634
		c7.8692017-1.4690857,14.9621582-4.5341797,20.6737671-10.282196c2.2443848-2.2587585,4.4703979-4.5994568,6.302002-7.1879425
		c2.0514526-2.8991852,3.9863892-5.9782715,5.3585205-9.2373657c1.9522705-4.6369934,2.5643921-9.6218567,3.1123047-14.6621857
		c1.204834-11.0840302-1.5672607-20.9237823-7.3776855-30.3105316c-6.4042358-10.3460388-16.1033325-15.7959137-27.1016235-19.56604
		c-1.4762573-0.506073-3.1448364-0.5269623-4.7328491-0.6096344c-1.5924683-0.082901-3.2329712,0.2578735-4.7807617-0.0065918
		c-1.0548096-0.1802063-2.5301514-0.8838196-2.831604-1.7121735c-0.3548584-0.9750366-0.0528564-2.7637024,0.6733398-3.4604034
		c3.6062622-3.4598389,5.0394287-8.2290497,6.0175171-12.5559845c1.2800903-5.6626663,1.2452393-11.85215,0.5651855-17.673584
		c-0.9768677-8.3633347-4.5728149-15.8526001-10.6210938-21.9534988
		c-5.9385376-5.990242-12.5325317-10.7901917-21.2961426-11.6111832c-0.4503174-0.0421677-0.9004517-0.1686935-1.3323364-0.3114853
		c-5.5431519-1.8325348-11.0628662-1.8554077-16.5802002,0.1328888c-0.8536377,0.3076324-1.7624512,0.5451508-2.6627197,0.6263733
		c-4.6644287,0.4210815-8.3585815,2.8270798-11.7765503,5.7455673c-2.105835,1.798172-3.7387695,1.562027-4.7320557-1.0516663
		c-1.1836548-3.1145782-2.3851318-6.250885-3.1902466-9.4748001c-1.6032715-6.4200554-4.8305054-11.8931847-8.9786377-16.9461861
		c-6.0012817-7.3103561-13.6537476-12.344471-22.3106384-15.7696114c-3.8956909-1.5413609-8.1572266-2.2354889-12.3083801-3.0200748
		c-1.9787292-0.3739929-4.1036377,0.1080608-6.1339722-0.0896492c-7.3166199-0.7124252-14.4761963,0.7241402-20.9273987,3.5857239
		c-8.0148315,3.5552082-15.6870422,8.1588726-20.9486084,15.674387c-1.2222595,1.7458191-2.4962158,3.4569092-3.6750793,5.2313499
		c-3.5708618,5.3749695-6.0378723,11.2183037-7.4660034,17.5199203c-0.3995056,1.7626114-0.9689026,3.5264816-1.7737732,5.1327744
		c-0.2349548,0.4690323-2.1080017,0.7746582-2.286499,0.5125122c-1.6690674-2.4506836-4.5305481-2.9680252-6.731842-4.4950485
		c-4.059082-2.8157196-8.7082214-3.8213882-13.3270874-4.2201538c-9.5768127-0.8266754-18.6549988,0.9231262-26.9758606,6.2949524
		c-5.7098389,3.6861649-10.3744202,8.2035599-13.7304688,14.0312653c-2.6686707,4.6341248-5.755188,9.1856613-4.9653931,15.0203705
		c0.1158752,0.8562469-0.4111328,1.7797928-0.4684753,2.6831207c-0.1385803,2.1833267-0.3176575,4.3798523-0.2147827,6.5584869
		c0.1110535,2.3499908,0.3857117,4.7133713,0.8462524,7.0195465c0.4248657,2.1275406,0.9468079,4.3019104,1.864502,6.2489777
		c1.3188782,2.7983246,3.1464539,5.3540497,4.5247498,8.1286621c0.5169373,1.0405731,0.3839417,2.4039917,0.5472412,3.6202087
		c-1.0678406,0.127243-2.1357727,0.2532654-3.2034302,0.3820038c-1.263031,0.1523132-2.5303955,0.276886-3.7873535,0.4693298
		c-1.187439,0.181778-2.4228516,0.7800598-3.5332031,0.5894928c-2.6395874-0.4530182-4.7590637,0.3183289-6.7928467,1.8884125
		c-2.1452332,1.6562347-3.5640564,1.1616211-4.3347473-1.4682465c-0.2518921-0.8595428-0.31427-1.799942-0.31604-2.7036591
		c-0.0398865-20.1777725-0.1837769-40.3566895-0.0085449-60.5327835c0.0545349-6.2780533-1.0947876-12.4044724-2.9447937-18.1340523
		c-2.6445313-8.1903954-6.212738-16.1435814-11.7926636-23.0254669
		c-6.6939087-8.2557755-13.7883911-16.0670681-22.9480286-21.5951767
		c-10.5112305-6.3438225-21.6190796-11.0987806-34.207428-11.446723c-8.2613525-0.2283353-16.3944702-0.5103375-24.677124,1.208007
		c-4.7088318,0.9769104-9.3392487,1.9849775-13.7114716,3.7955098
		c-11.1880798,4.6329532-21.5489349,10.6108685-29.542984,20.0032711c-1.5775452,1.8534603-2.7952576,4.0623112-4.5574188,5.6999874
		c-4.7365417,4.4019413-7.390152,10.2747822-9.6040497,15.8942699c-3.3768616,8.5714722-5.0890503,17.7994156-7.4877625,26.7540588
		c-0.1352539,0.504921-0.1157379,1.0588303-0.1194153,1.5902557c-0.0343323,4.9412003-0.0761261,9.8824921-0.0817261,14.8237457
		c-0.0357361,31.6041107-0.0986328,63.2082443-0.081955,94.8123245c0.0144806,27.4150696,0.1250153,54.8300934,0.1857452,82.2451324
		c0.0089264,4.0284729-0.9063721,5.0108643-4.8660583,5.2857361c-0.7571716,0.0525513-1.5204468,0.0112305-2.2804718,0.0301514
		c-3.792038,0.0943909-7.5849457,0.1679382-11.3748169,0.3178406c-0.6509247,0.0256958-1.452301,0.2049255-1.9068756,0.6182556
		c-4.037796,3.67099-7.1563568,7.794342-7.1338806,13.6635132c0.0711517,18.5795288,0.0923767,37.15979-0.0211182,55.7387695
		c-0.0089722,1.4751587-0.8549347,3.2950439-1.9162445,4.3421631c-2.3153992,2.2843323-5.052475,4.135437-7.5593262,6.2327881
		c-5.0686493,4.2405701-10.1488495,8.469696-15.1317596,12.8097534c-5.902771,5.1412048-11.6453476,10.4671631-17.5758667,15.57547
		c-4.4909821,3.8683167-9.230957,7.4467163-13.7438583,11.2906799c-4.3968658,3.7451172-8.6857529,7.6203003-12.9455719,11.5218201
		c-2.6894531,2.4632263-5.7470169,3.463501-9.3845978,3.3489075c-6.5437012-0.2061768-13.0943527-0.2175598-19.6423874-0.2553711
		c-18.6492958-0.1076355-37.2987061-0.1990662-55.9481735-0.2619629c-1.9729552-0.0066223-4.0013905-0.0126343-5.8964953,0.4358215
		c-0.9161028,0.2167664-2.2372732,1.4725952-2.2582211,2.2867126c-0.1682251,6.5423584-0.0929687,13.0917053-0.0384092,19.6386108
		c0.0153692,1.8441467,1.1354284,3.0018921,2.8498957,3.3961792c1.2412002,0.2855225,2.5578797,0.3220215,3.8417847,0.3299255
		c10.3543625,0.0641479,20.7090321,0.1459351,31.0633926,0.1253052c19.4884148-0.0389404,38.9770012-0.1098938,58.4645195-0.2814636
		c1.5842361-0.0139465,3.4520035-0.5146179,4.6901932-1.448822c5.1473923-3.8840942,10.2116013-7.8960571,15.0987778-12.1022034
		c4.4901352-3.8644714,8.5846634-8.1895142,13.0860748-12.0397339c6.5848541-5.6324158,13.4083252-10.9849243,20.0665894-16.53302
		c2.7439575-2.2864075,5.2947998-4.802887,7.9831085-7.1579895c5.2625732-4.610321,10.6523743-9.0794678,15.8209686-13.7919312
		c7.5225677-6.8587036,15.556427-12.8849792,25.1372833-16.5947266c0.4895172-0.1895447,1.030426-0.3290405,1.5512238-0.3422546
		c4.4736328-0.1135559,8.9493561-0.2758179,13.4213257-0.2099304c0.8687134,0.0128174,2.0729523,0.7460632,2.525589,1.5036011
		c2.117157,3.5432739,1.1422882,7.5396729-2.2046509,10.0243835c-0.6080933,0.4514771-1.1771851,0.9677734-1.7078705,1.5094299
		c-10.8634186,11.0881348-21.6144867,22.2890015-32.6188202,33.2352905
		c-5.6235504,5.5938721-12.4788055,9.9756165-15.8962708,17.6226807c-0.9098358,2.0357971-1.4224854,3.95224-0.7188416,5.9021912
		c2.4446259,6.7748108,6.5394135,10.8892517,14.5624084,10.7515869c6.999649-0.1201782,13.9971008-0.4918213,20.9959106-0.5030823
		c7.5264587-0.0121765,15.0536804,0.4086914,22.5800171,0.3929443c31.9681396-0.0664978,63.9361877-0.2056885,95.9039917-0.3700867
		c4.7832031-0.0246582,9.227417,3.6026001,9.3259888,7.8981934c0.1050415,4.578064-3.8135681,8.0797119-8.9623718,8.0188904
		c-3.346405-0.0394287-6.6930542-0.0945435-10.0395508-0.0928955c-24.8263245,0.0122375-49.65271,0.0049744-74.4789124,0.0804138
		c-6.0845642,0.0185242-12.1831207,0.1173706-18.2476196,0.5585327c-4.6936646,0.3414001-8.155777,2.7966003-9.5553131,7.5415955
		c-2.8831787,9.7748413,2.2727203,17.3036499,11.7991486,17.3794861
		c37.0088959,0.2948303,74.0212402,0.1965637,111.0322266,0.172699c9.6651001-0.006134,19.3300781-0.3641052,28.9949646-0.354126
		c2.3838806,0.0025024,4.783783,0.7420654,7.1395874,1.2984314c0.6639099,0.1568298,1.3694763,0.7510681,1.7634277,1.3401184
		c3.1881104,4.7675781,0.085083,11.5240479-5.5932007,12.2501526c-0.6758423,0.0864868-1.3677673,0.0663757-2.052124,0.0641479
		c-29.4698792-0.0939331-58.9396973-0.2211304-88.4096375-0.2774658
		c-17.2848969-0.0330811-34.5700073,0.028717-51.8549347,0.0862427c-4.4038849,0.0146179-8.193573,1.4453125-10.9165192,5.1360474
		c-2.7985229,3.7929688-3.341217,11.1696472-0.7581787,15.1222534c1.7127228,2.6207581,3.9104919,4.9906006,7.3310242,5.2783203
		c2.7063141,0.2277832,5.4394073,0.1785278,8.1606598,0.1810913c21.5507813,0.0206299,43.1017609,0.0774536,64.652298,0.0144043
		c14.3887329-0.0422974,28.7768555-0.2679443,43.1653748-0.4000854c4.0537109-0.0371704,8.7023621,2.8969727,9.7071228,6.0849609
		c1.6585388,5.2622681-2.2503662,9.9128418-8.3577271,9.9125366c-25.2828064-0.0013428-50.5657349-0.0609131-75.8483276,0.00177
		c-13.0911407,0.0324707-26.1829681,0.210022-39.2719727,0.4558716c-5.2624969,0.0987549-8.6476746,3.288269-10.5129242,7.8636475
		c-3.6409302,8.9313354,2.7275543,17.6898804,12.6831818,17.7844849
		c12.6303406,0.1200562,25.2608032,0.4124146,37.8902588,0.3669434c6.3045044-0.0227051,12.6087646-0.6008301,18.9089355-0.9955444
		c1.7403259-0.1090088,3.466095-0.6513672,5.1972961-0.6453857c1.5049438,0.005249,3.6498718-0.0960083,3.6716614,2.0974121
		c0.0195618,1.9677734-1.8621216,2.3536377-3.5090942,2.5342407c-0.8292542,0.0909424-1.6763306,0.0090332-2.5093689,0.0775757
		c-1.5898438,0.1307373-3.1768799,0.300354-4.7625732,0.4766235c-5.9614258,0.6627197-11.9210815,1.3413086-17.8830261,1.9991455
		c-1.8134003,0.2000732-3.8032379-0.0609131-5.4149475,0.6069946c-4.1312256,1.7116699-8.4554596,1.6040039-12.7451019,2.0941162
		c-6.7102203,0.7666626-13.3730927,1.9386597-20.0746155,2.7932129c-7.5088806,0.9575195-15.0368042,1.7678223-22.5610504,2.6004639
		c-0.9723053,0.107605-1.9966278,0.0949707-2.9546509-0.0858154c-2.463974-0.4649048-4.9708252-0.8532715-7.3414612-1.6338501
		c-7.055603-2.3235474-14.1908417-4.4221802-21.268631-6.6459351c-15.0759583-4.7365723-30.453537-8.5145264-45.7131119-12.6646729
		c-6.8838425-1.8723145-13.7785568-3.7047729-20.6757278-5.5272827c-0.8028259-0.2121582-1.65065-0.324646-2.4815063-0.3486328
		c-5.2447128-0.151062-10.4907913-0.3817749-15.7359161-0.3695068c-23.8330917,0.055542-47.666069,0.1811523-71.499054,0.2912598
		c-1.0634632,0.0048828-2.1366057,0.0316162-3.1874895,0.1767578c-1.7421933,0.2406616-2.7520456,1.2849121-2.7908733,3.0678711
		c-0.1275007,5.8563843-0.3258785,11.7147827-0.2714027,17.5702515c0.0330537,3.5521851,1.5953068,4.8668213,5.1835961,4.888916
		c14.0065002,0.0861206,28.0130539,0.1989746,42.0196953,0.2113037c10.2030373,0.0089722,20.4061661-0.1305542,30.609314-0.1914673
		c3.9224777-0.0233765,7.8457947-0.0532837,11.7673035,0.0093994c1.0426559,0.0166626,2.1096039,0.2685547,3.1147156,0.5773926
		c4.9188614,1.5114746,9.7884064,3.1917114,14.7352982,4.6021118c9.4360809,2.6902466,18.9184952,5.2174683,28.3708191,7.8513184
		c7.1475983,1.9916992,14.1268005,4.6427612,21.550293,5.5460815c3.9219818,0.4771729,5.0498962,1.600769,5.1019745,5.5090942
		c0.0609283,4.5670776,0.0638275,9.1351929,0.0634308,13.7028809c-0.0034027,37.0869141,0.0444641,74.1740723-0.1091766,111.260498
		c-0.0157318,3.8017578,1.1507416,6.770874,3.3772278,9.578125c2.571579,3.2423096,5.8538666,4.9517212,10.056427,4.9464111
		c23.1509094-0.0297852,46.3018646-0.0391846,69.4527893-0.0231323c29.4688568,0.0204468,58.9376984,0.0897217,88.4065704,0.0947266
		c5.7043762,0.0010376,11.4161987-0.0570068,17.1101685-0.3586426c2.9568481-0.1566772,3.9916382,0.2869263,4.1409302,3.2357178
		c0.0666809,1.3184814-0.3142395,2.6793823-0.618988,3.9915771c-0.3249817,1.3991699-0.8989563,2.7427368-1.1927795,4.1464844
		c-1.4670715,7.0078125,1.6542358,13.4584351,2.5259705,20.1848755c0.0280457,0.2163086,0.1549988,0.4342041,0.2806396,0.6213379
		c2.2801514,3.3933105,4.2672119,7.0436401,6.9341431,10.100647c2.8764648,3.2971191,6.0745239,6.5288086,9.7202148,8.8757935
		c3.2783508,2.1105347,7.2519836,3.4304199,11.0994568,4.3023682c6.4927673,1.4714355,13.091095,2.7373047,19.7126465,3.3170776
		c9.2432251,0.8095093,18.5529175,0.8340454,27.824585,1.362915c2.4022522,0.1369019,4.7670898,0.9094238,7.1521301,1.3746948
		c2.3745422,0.4631348,4.7358704,1.0817261,7.1339111,1.3148804c2.9498291,0.2868042,5.9380188,0.1539307,8.8985901,0.3613892
		c11.3764038,0.7973022,22.7484741,1.6568604,34.121582,2.5008545c0.3768921,0.0279541,0.7450256,0.163147,1.1221313,0.204895
		c4.1445313,0.4585571,8.2826233,0.9985962,12.4369812,1.3404541c6.9740906,0.5740356,13.9662781,0.9334106,20.9367371,1.5444946
		c7.4957275,0.6572876,14.9804688,1.4515381,22.4598999,2.27771c6.5663452,0.7252197,13.1187134,1.5765991,19.677124,2.3734741
		c1.2835083,0.1560059,2.5621948,0.3746338,3.8500366,0.4674683c13.8907471,1.0023193,27.8282471,1.5762939,41.6593628,3.1105957
		c9.9136963,1.0998535,19.7755127,2.617981,29.7667847,2.4328613c14.607605-0.2705078,29.2973633,0.0732422,43.7896118-1.4210205
		c12.1682129-1.2548828,24.3921509-2.8397827,36.4268188-5.5919189c12.2132568-2.7929077,24.6478882-4.6177368,36.9850464-6.8691406
		c4.0946655-0.7473145,8.1611328-1.7775269,12.2890015-2.1779785c4.2521362-0.4125366,8.4799194-0.5427856,12.46875-2.3709106
		c1.4998169-0.6873169,3.1951294-1.026123,4.8382568-1.3099976c8.0855103-1.3966675,16.1852417-2.7108765,24.2762451-4.0762329
		C815.8660889,787.3717041,816.5311279,786.3012695,815.4434814,781.9106445z M213.5066986,407.8499756
		c-1.9566345-0.0084839-3.0777588-1.0596924-3.0557709-2.8652039c0.0254669-2.0887146,2.243515-5.1251221,3.790741-5.1891785
		c1.4073792-0.0583801,2.4759216,1.9153442,2.4608307,4.5453491
		C216.6888885,406.7152405,215.6469879,407.8592224,213.5066986,407.8499756z M200.3783722,677.3234253
		c-2.6399994,2.6183472-5.2315521,5.2868042-7.7985535,7.9769897c-1.1110382,1.1643677-2.3348999,1.7654419-3.8633118,1.0333862
		c-1.6056061-0.7689819-1.5422516-2.1448975-1.3601379-3.7104492c0.3760529-3.2325439,0.730896-6.4900513,0.7417755-9.7384644
		c0.0374603-11.1879272-0.1480713-22.3764648-0.1116333-33.5643921c0.0304565-9.3547974,0.3196869-18.7088013,0.3538513-28.0635376
		c0.0119171-3.2620239-0.3804321-6.5267334-0.6160278-9.788147c-0.3343811-4.6296387,1.0314941-5.7446899,5.5898132-5.6865845
		c6.2943115,0.0803833,12.6372681-0.0180664,18.7021027-2.0958862c1.8856201-0.6460571,3.2097168-0.1560059,3.9262695,1.557373
		c0.5145264,1.2302246,0.8833313,2.6229858,0.8933716,3.9464722c0.07341,9.663269,0.0395508,19.3273926,0.0395508,28.991272
		c-0.0247345-0.000061-0.0495148-0.0001831-0.0742493-0.0002441c0,9.5134277,0.0243225,19.0269775-0.0124359,28.5401611
		c-0.0139465,3.6123047-0.9487457,6.4675903-4.2474518,8.9473267
		C208.0845032,669.019043,204.3704224,673.3640137,200.3783722,677.3234253z M250.9703674,704.6817627
		c-0.5644684,1.9290771-2.1938934,2.8137207-4.2170868,2.3811035c-9.2529297-0.0735474-18.5057526-0.1657104-27.7588043-0.1965332
		c-1.116272-0.0037842-2.2542114,0.2415771-3.3462372,0.5147095c-2.4775696,0.619873-4.1421051-0.0822144-5.0146179-2.2575684
		c-0.8681793-2.1643066,0.7334137-2.8718872,2.1363373-3.880127c1.715744-1.2329712,3.3395538-2.6405029,4.8089294-4.1603394
		c3.3722839-3.4880981,6.6422577-7.0758667,9.9237213-10.6508179c2.1860809-2.3815308,3.1304932-2.3013916,5.319931,0.0532227
		c4.1225891,4.4334717,8.3379211,8.7822876,12.5844727,13.0976563c0.7725067,0.7849121,1.8452759,1.3028564,2.8373108,1.8365479
		C249.6186523,702.1587524,251.5982819,702.5356445,250.9703674,704.6817627z M271.3106384,681.1034546
		c-0.7018738,1.6605225-1.6011963,3.2376099-2.4231567,4.8475342c-1.0954895-1.1514282-2.1876221-2.3060303-3.2872009-3.4534302
		c-2.0844727-2.175415-4.1524048-4.3671875-6.2643433-6.515686c-5.1058807-5.1942749-10.2788239-10.3239746-15.3018646-15.5967407
		c-0.7406311-0.7774658-1.1395416-2.1908569-1.1443329-3.3123779c-0.0771179-18.0319824-0.0541992-36.0643921-0.0831451-54.0966797
		c-0.0046082-2.864563-0.0794983-5.7332153-0.2530212-8.592041c-0.1600342-2.6360474,1.6220856-4.3710327,4.3268127-4.3492432
		c1.5419006,0.0123291,3.0814209-0.4920654,4.6325073-0.6740723c5.6378937-0.6617432,11.2709808-1.399292,16.9259186-1.8626099
		c1.9900513-0.1630859,2.3610535,1.690918,2.3908997,3.258667c0.086731,4.560791,0.0783081,9.1236572,0.082428,13.685791
		c0.0090332,9.9678345,0.0027771,19.935791,0.0027771,29.9035645c0.0183716,0,0.0367126,0,0.0550842,0
		c0,13.31604-0.0100708,26.631897,0.0132751,39.947876c0.0027771,1.5927734,0.1917114,3.1848755,0.2853394,4.777832
		C271.3087463,679.7543335,271.5514832,680.5335083,271.3106384,681.1034546z M355.9156494,170.6827393
		c2.2474976-2.3264465,4.9953003-4.1776733,7.5866699-6.1613922c2.4004211-1.8375092,5.1610413-2.3748474,8.1633301-2.3633575
		c9.8934021,0.0378571,19.7873535-0.054306,29.6811523-0.0887299c0.8353577-0.0029297,1.676239,0.0013428,2.5055542,0.0883179
		c6.0723572,0.6368256,12.1031799-2.4034882,14.5415955-7.354538c2.588562-5.2557831,1.5624084-11.8349457-2.8479919-16.2217712
		c-4.5751038-4.5506897-9.3929443-8.8563995-14.0533447-13.3227997c-1.9187012-1.8387909-3.6665039-3.8547592-5.5562439-5.7252884
		c-5.5140381-5.457901-5.0033569-16.5670319-1.5131226-21.5153732c3.4871826-4.9440231,12.5618286-7.0024414,18.1307678-4.8356857
		c4.8949585,1.9045334,7.4077759,6.0979462,10.8574219,9.4054337c4.7194824,4.5250015,9.0949707,9.4558029,14.1295166,13.5895462
		c3.6936646,3.0327911,7.7507019,6.1501312,13.3824768,4.3907013c5.5426331-1.7315369,9.2046204-5.714325,9.4485474-11.5114899
		c0.2301941-5.4695053-0.1383057-10.9718704,0.2457275-16.4253311c0.5410767-7.6836853-0.7286072-15.5969849,2.3960571-22.9781036
		c0.8349304-1.9722061,2.4975891-3.5825424,3.4294128-5.5271606c3.4615173-7.2236366,10.5573425-8.9668045,17.1520081-10.7906418
		c7.001709-1.9363861,13.7406311-0.0358162,20.0722961,3.7558174c5.3616638,3.2106705,7.9718323,8.0308418,10.6359863,13.3978691
		c2.9032593,5.8486252,2.6887817,11.727829,2.6442871,17.7793274c-0.048584,6.6232605-0.3409424,13.2528763-0.1361084,19.86763
		c0.2296753,7.415123,4.3501587,11.579071,10.7416382,12.8656006c3.828064,0.7705536,7.8829346-0.531395,10.8747559-3.600563
		c3.2907104-3.3757095,6.454895-6.8775635,9.8095093-10.1872482c3.9464722-3.8935318,7.7982788-7.9491425,12.1585693-11.3317795
		c2.5508423-1.9788666,6.0010376-2.8131332,9.0793457-4.0828629c0.5175781-0.213501,1.2801514-0.2077255,1.796875,0.0106506
		c4.1738892,1.7637024,8.7436523,2.9928818,11.3249512,7.1912003c1.3343506,2.1702957,2.9469604,4.3968353,3.4533691,6.8041992
		c1.2608032,5.9934006-1.9337769,10.5593796-5.8845215,14.5731277c-5.1201782,5.201973-10.4407959,10.2068558-15.5575562,15.4121323
		c-2.1133423,2.1499939-4.1744385,4.4350739-5.8140869,6.9491272c-3.0294189,4.6452332-2.4263916,12.0908203,1.8862305,15.4747009
		c2.7125244,2.1283264,6.5288696,3.3115845,10.0177612,3.8683472c4.0826416,0.651535,8.3474121,0.1618347,12.5332642,0.1659546
		c1.750061,0.0017395,3.500061,0.0003052,5.250061,0.0003052c0,0.0355377,0,0.0710754,0,0.1066437
		c7.3779297,0,14.7559204-0.007782,22.1338501,0.0147552c0.5870361,0.0018158,1.2768555,0.0519409,1.7446899,0.3515625
		c6.0292969,3.8625946,10.772644,9.1153107,12.5078735,15.9680786c1.8704834,7.3871155-0.9995728,15.2931061-8.2004395,20.6063843
		c-4.5136719,3.3304749-9.6216431,4.5656433-15.2560425,4.4589233c-6.9118042-0.1309357-13.8321533,0.2780457-20.7495728,0.3201141
		c-3.4924927,0.0212555-7.0025024-0.0919495-10.4765625-0.4308472c-4.7456055-0.4629211-7.8425903,1.9858398-10.5599976,5.3728027
		c-2.1313477,2.6564178-2.8621216,5.6481476-2.3511353,8.9872131c0.0681763,0.446106,0.1413574,0.9677124-0.0199585,1.3585815
		c-0.5239258,1.2696838-1.1558228,2.4948425-1.7462769,3.7371216c-1.1328125-0.6277008-2.3223877-1.1722107-3.3880005-1.898468
		c-3.3649902-2.2932892-6.6443481-4.7135468-10.0350952-6.9671326c-1.9465942-1.2938995-3.949707-2.5877838-6.0945435-3.480072
		c-4.0608521-1.6893311-8.1546021-3.4309998-12.3970337-4.5160522c-4.4763184-1.1447906-9.1247559-1.6947327-13.7288818-2.2467499
		c-10.9837341-1.3168182-21.9081421,0.068222-32.2431335,3.3461151
		c-9.3539734,2.9668274-18.4188232,7.2993927-25.9993591,13.9385834c-2.144165,1.8779449-3.9891052,4.0950775-6.1000061,6.015152
		c-0.5335999,0.4854279-1.8947449,0.8540649-2.3011475,0.5379333c-1.2246094-0.9526825-2.6647644-2.100235-3.1299133-3.4735718
		c-1.7805481-5.2576599-4.6464233-9.9104309-7.8275452-14.3271027c-2.1428833-2.9751434-4.9616089-5.4699249-7.5265198-8.1328735
		c-2.2597961-2.3462067-4.3574829-4.9331207-6.9358521-6.8688049c-4.2984009-3.2269592-8.730896-6.3787842-13.4572754-8.9073639
		c-6.7562866-3.614624-13.9000854-6.536911-21.4543762-8.0373688c-4.5270386-0.899231-9.1851501-1.2687988-13.8040161-1.5344696
		c-3.6354065-0.2091827-7.3044128,0.2230225-10.9508667,0.1143494c-1.1003723-0.0327759-3.0033569-0.8034973-3.0948792-1.4428864
		C354.8282776,173.7414703,354.9882813,171.6427155,355.9156494,170.6827393z M552.1965332,272.0991211
		c-0.6745605,0.0974731-1.3638306,0.1297913-2.0464478,0.1300354c-17.7178345,0.0067444-35.43573,0.0053406-53.1535645,0.0053406
		c-0.000061,0.0074158-0.0001831,0.0148621-0.0002441,0.0222473c-13.3907776,0-26.7816162,0.0290527-40.1721191-0.0333862
		c-1.8685608-0.0086975-3.8236389-0.2006836-5.5803833-0.7843933c-2.2568359-0.7498169-2.7264709-2.4766846-1.6021118-4.577301
		c2.3163757-4.3275146,4.622467-8.661499,7.0201416-12.943924c0.6976929-1.24617,1.6184692-2.3900452,2.5611572-3.472641
		c5.8037415-6.6647644,12.7922363-11.890564,20.5259094-16.026825c2.9623718-1.5843353,6.3812256-2.5247345,9.7059937-3.1829681
		c10.1934204-2.0181427,20.2266846-2.150238,30.2553406,1.6901245c8.3338013,3.1912994,15.742981,7.5343323,22.024231,13.7922668
		c4.1315308,4.1162872,7.2050171,8.9884033,9.5394897,14.3351593c0.6663208,1.526001,1.5958862,2.9418335,2.203125,4.4873657
		c0.4881592,1.2426758,0.8110352,2.5899963,0.9540405,3.9181519
		C554.5946045,270.977478,553.7024536,271.8815918,552.1965332,272.0991211z M327.986969,207.4180603
		c1.6566467-2.2935333,5.1906738-4.1273346,8.0817871-4.4489899c6.313446-0.7024384,12.7484436-0.3130798,19.1338196-0.3677521
		c0.7614136-0.0065308,1.5229797-0.0009155,2.2844543-0.0009155c0-0.0036011,0.0000305-0.0072327,0.0000305-0.0108337
		c5.4823303,0,10.9647217-0.0115051,16.4469604,0.0114136c0.9082947,0.0037994,1.8611145,0.0081482,2.7169189,0.2659607
		c9.1303101,2.7507935,18.0827026,5.83815,24.876709,13.0714569c2.0791626,2.213623,4.4963989,4.1233978,6.4682312,6.4216766
		c6.3547974,7.4069214,10.5252991,16.0799255,12.5366516,25.4975128c1.0422058,4.8796539,1.6052246,10.179184-0.6863708,15.253891
		c-2.782135,6.1610413-7.9379272,8.7045898-14.0259094,8.9227295c-9.1934204,0.3294067-18.4446716,0.259491-27.6151428-0.4103394
		c-6.1776123-0.4511719-12.2589722-2.2257385-18.3805542-3.4229126c-0.3669739-0.0717468-0.7227478-0.2451782-1.0600281-0.417572
		c-13.3242188-6.8104553-24.1105347-16.2633057-29.7714233-30.408493
		c-2.4553528-6.1353149-4.1804199-12.6478119-4.6586609-19.3574524
		C324.0464172,213.9776611,325.8842773,210.3291626,327.986969,207.4180603z M216.9661255,321.1350098
		c0.0177612,4.3811951-1.1928558,5.8742676-5.4971771,5.3676147c-4.8515015-0.5710754-9.5188141,0.3377075-14.2366943,0.9275513
		c-1.3992767,0.1749268-2.7244873,0.9179382-4.0921631,1.3751526c-3.2296295,1.0797729-5.1409454,0.026947-5.3327179-3.4310608
		c-0.1971436-3.5541077,0.1850433-7.1372375,0.2320709-10.7087708c0.0539856-4.0972595,0.0945435-8.1975708-0.0053558-12.2930298
		c-0.0668793-2.743042,0.5955811-3.9174805,3.361496-4.1002197c3.2570801-0.2151794,6.5393219-0.0504761,10.7552948-0.0504761
		c3.0806885-0.1662903,7.0934906-0.3977966,11.108017-0.5936584c2.255127-0.1100464,3.7128143,1.3836975,3.7075043,3.6550903
		C216.951004,307.9004517,216.93927,314.5178528,216.9661255,321.1350098z M219.5631714,272.1377258
		c-3.1606293-0.5185242-4.1160889-1.7319946-4.1142273-4.9492493c0.018631-31.9831238,0.0206146-63.9662781,0.0463867-95.9494324
		c0.0223694-27.7962341,0.0754852-55.5924149,0.0947876-83.3886566c0.0016937-2.4345093-0.5955048-4.9562683-0.1423492-7.2873993
		c1.3841553-7.120903,2.2879639-14.4985428,5.5613098-21.0037804c3.0224457-6.0065651,7.0280762-11.5338898,10.8022156-17.1365013
		c1.0216217-1.5166206,2.6461334-2.7395782,4.2167816-3.7513847c3.6819305-2.37183,6.7526093-5.5411873,10.9148254-7.3369083
		c7.0789032-3.0540485,14.3683472-4.9512177,22.0302429-5.223484c5.6295471-0.2000237,11.1111145,0.6661491,16.6857605,1.9112549
		c6.8204041,1.5233421,12.4337769,5.1774311,18.2410278,8.4164677c3.3875427,1.8894424,5.8421936,5.4771767,8.6600342,8.3562202
		c3.9232483,4.0085297,7.1059265,8.4859505,8.813446,13.924633c0.8377075,2.6681709,2.2447815,5.192131,2.8177185,7.9031754
		c3.3862305,16.0226288,1.5405884,32.2781219,1.8203125,48.431015c0.3256836,18.8045807,0.1296387,37.6182251,0.1593323,56.4279175
		c0.0008545,0.5330658-0.0430298,1.068924-0.0030518,1.5987701c0.281311,3.7305908-0.9271851,6.2547455-4.7510986,7.7473755
		c-6.1921082,2.4170227-10.9988403,6.9181824-14.5775757,12.3665466c-2.4832764,3.7805481-5.4335632,7.4177704-5.9823608,12.3708191
		c-0.3833008,3.4599915-2.5946045,6.5951996-2.3791504,10.3339233c0.0788879,1.369873-1.1382141,1.9648438-2.5875854,1.9409027
		c-12.169281-0.2012482-24.3388672-0.3901978-36.5090332-0.5281372c-3.9575958-0.0448761-7.917984,0.0335846-11.875351,0.1287079
		c-2.5750122,0.0618744-2.9122467,0.6083221-2.8102875,3.1920319c0.0625,1.5841217-0.3080292,3.1827545-0.2797699,4.771225
		c0.0933075,5.24646,0.273407,10.4914246,0.4336243,15.7365875c0.0513,1.6777039,1.0869598,2.0571289,2.5950165,2.162262
		c14.5144958,1.0118408,29.0318604,0.8093262,43.5524902,0.2150879c0.0760803-0.0031281,0.1522522-0.0046234,0.2283936-0.0050201
		c6.1575317-0.0321808,6.1278076-0.0329895,6.3080139-6.3474426c0.0716248-2.5084076,0.255249-5.0172119,0.4980469-7.5150909
		c0.0813599-0.8374481,0.5044556-1.6417236,0.7712708-2.4611816c0.3146667-0.0219574,0.629303-0.0439301,0.9439392-0.0658875
		c0.3879395,1.2432404,0.8617249,2.4670715,1.1483459,3.7332306c1.0040894,4.4356842,1.6520996,8.977005,3.0014648,13.3015137
		c1.0507202,3.3675995,3.183197,6.3844452,4.4059753,9.7146912c1.7563477,4.7836609,4.9252014,8.5148315,8.188446,12.2321472
		c0.250946,0.2858887,0.644104,0.5134583,0.7575684,0.8418884c0.4529114,1.3111572,1.3504333,2.8028564,1.0291138,3.926178
		c-0.2034302,0.7112732-2.2686768,1.250061-3.5010376,1.254425c-30.7513733,0.1084595-61.5031281,0.1366882-92.2547607,0.1701355
		C221.5344696,272.2983704,220.5322418,272.2967529,219.5631714,272.1377258z M271.3401184,303.0993347
		c-0.3766479,3.5308533-0.4978943,7.104126-0.4909668,10.6582336c0.045105,23.133728,0.1522217,46.2673035,0.2473755,69.4008789
		c0.0249939,6.0819092,0.0827026,12.1636963,0.1152344,18.2455444c0.0036621,0.6833801-0.0274353,1.3702698-0.0960693,2.0501709
		c-0.3858337,3.8232727-0.8514709,4.2601318-4.6443481,4.2854004c-3.0435486,0.0202942-6.0873718,0.0041199-9.131134,0.0041199
		c0.000061-0.0270386,0.0000916-0.0540466,0.0001221-0.0810852c-3.4981689,0-7.0019989,0.1243286-10.4928741-0.0355225
		c-3.3844452-0.1550293-3.9375763-0.6848755-4.148056-4.1204834c-0.1666107-2.7194214,0.1307831-5.4639893,0.1325684-8.1975403
		c0.0162354-24.8056641,0.0072632-49.6112976,0.0196381-74.4169617c0.0025482-5.0882874,0.085022-10.1766357,0.0811462-15.2648926
		c-0.0008698-1.1300964-0.1307373-2.2752991-0.3417816-3.3868713c-0.4309235-2.2695618,0.0604248-3.4208679,2.3442535-3.8217468
		c2.147583-0.3769836,4.3830414-0.2781982,6.5812225-0.3374939c4.9352417-0.1331482,9.8760986-0.138092,14.805542-0.3803406
		C270.0487366,297.5176392,271.7369995,299.3789368,271.3401184,303.0993347z M319.3074646,707.0393066
		c-4.4888-0.0020142-8.9772949-0.2132568-13.4666443-0.2796021c-1.2108459-0.0178833-2.4393616,0.0439453-3.6335144,0.2341919
		c-3.2162781,0.5120239-4.7796936-0.7751465-4.7388916-4.0092163c0.0873413-6.9258423,0.2445374-13.8516235,0.2490845-20.7775879
		c0.0193481-29.3948975-0.013092-58.789856-0.0073547-88.1846924c0.0006714-3.4257813,0.1229553-6.8515015,0.1847229-10.2773438
		c0.0322876-1.7932129,0.7377319-3.0699463,2.2889404-4.1654053c6.6686096-4.7091675,10.4254456-11.1182251,10.8332825-19.3740845
		c0.1306152-2.6450806,1.4660034-3.6259155,4.1730957-3.6627197c5.4642029-0.0743408,10.9261169-0.3220215,16.388855-0.5009766
		c0.2278442-0.0075073,0.4638367-0.0951538,0.6807861-0.0574951c7.7333984,1.3417969,14.0420532-2.4973145,19.9412537-6.3447266
		c4.5075989-2.9398193,7.8088379-7.496582,10.5343018-12.3770142c3.0588379-5.477478,3.5160522-11.2453003,3.0575867-17.2299194
		c-0.3437195-4.4868164-0.1497192-5.1455688,4.128418-6.3989868c12.3094177-3.6060181,19.306427-12.4074097,22.1721802-24.2081299
		c1.5642395-6.4413147,1.6644592-13.4965515-2.0166321-19.7557373c-2.0677185-3.5158997-3.8317871-7.320343-6.464386-10.3613892
		c-2.3703918-2.7381287-5.5716858-4.8844604-8.7039795-6.8072205c-5.4552917-3.3486633-11.7705688-3.1528931-17.867981-3.3852539
		c-4.3968506-0.167572-5.5723572-0.836853-5.3788757-5.245575c0.2328796-5.3059387-0.092865-10.4458923-2.0046997-15.48349
		c-2.8569336-7.5280457-8.1500549-12.6769409-15.1593018-16.2850342c-1.6819458-0.8658447-3.2968445-1.8930664-5.0431824-2.596405
		c-3.5512695-1.4301758-7.1532898-2.1362305-11.1196899-1.7985535c-5.0448914,0.4293823-10.1563416,0.0714417-15.2390747,0.0628052
		c-4.641449-0.0078735-5.4612732-0.7753296-5.4577942-5.4507751c0.0090942-12.1828918,0.0549622-24.3658752,0.0965271-36.5487976
		c0.0675964-19.798645,0.1489868-39.59729,0.2056885-59.3959656c0.0047913-1.6729736-0.194458-3.3464661-0.1896362-5.0194702
		c0.0074463-2.5760193,0.9101868-3.4533997,3.4481812-3.4490967c54.5227661,0.092926,109.0455627,0.2228699,163.5683594,0.2744141
		C498.8834534,298.2123413,533,298.1492004,567.116333,298.0713806c4.7833252-0.0109558,9.565918-0.4506531,14.348999-0.4533386
		c0.9385376-0.0005188,2.3862915,0.9033813,2.7073975,1.7346191c0.6106567,1.5808716,0.7749634,3.4099731,0.7793579,5.1368713
		c0.0286255,11.3398743-0.0735474,22.6800537-0.0599365,34.02005c0.0218506,18.1982117,0.1193237,36.3963318,0.149353,54.5945435
		c0.0267944,16.2206421,0.0056152,32.4413452,0.0056152,48.6620789c-0.0548706,0-0.1096191,0-0.1644287,0
		c0,40.3602905-0.0095215,80.7205505,0.0118408,121.08078c0.0026855,5.0974731,0.1782837,10.1947021,0.2487793,15.2923584
		c0.015686,1.138855,0.0348511,2.2957764-0.1365967,3.4154663c-0.4266968,2.7874756-1.4476318,3.3931274-4.277771,3.6459351
		c-2.5424805,0.2271118-5.0956421,0.7463989-7.5498047,1.4605103c-4.4492798,1.2947998-8.8788452,2.7206421-12.5593872,5.7369995
		c-1.0474243,0.8585205-2.2263184,1.5983887-3.1201782,2.5944214c-2.4892578,2.7736206-4.9866943,5.5580444-7.2305908,8.5273438
		c-1.3102417,1.7339478-2.303833,3.7608643-3.1604614,5.7749023c-5.401062,12.6993408-5.598877,25.2853394,0.368103,37.9846802
		c2.3868408,5.0797119,6.168335,8.9342651,9.4620361,13.2509155c3.4123535,4.47229,6.5498047,9.1541748,9.9611816,13.6271362
		c4.5561523,5.9741211,9.3279419,11.7841797,13.8646851,17.772583c1.5948486,2.1050415,2.8051758,4.5083618,4.1072388,6.8226929
		c0.272644,0.4846802,0.3098755,1.1960449,0.2275391,1.7702637c-0.3970337,2.7689819-4.6020508,6.4984741-7.4313354,6.515564
		c-8.9779663,0.0543823-17.9564209,0.0626221-26.9347534,0.0611572
		C473.5913086,707.0874634,396.4494019,707.0740967,319.3074646,707.0393066z"/>
	<path d="M248.1455536,189.2376556c3.416748-0.0648804,6.8338013-0.1353455,10.2509613-0.151413
		c12.0147095-0.0564575,24.0297852-0.1441803,36.0440979-0.087326c2.3512573,0.0110931,3.2367859-1.0569458,3.2299805-3.0989685
		c-0.0213013-6.3896942-0.0336304-12.7824249-0.2501831-19.1671295c-0.0994263-2.9305115-0.7287903-3.335556-3.710022-3.3448639
		c-7.5359192-0.0235748-15.0719604-0.0078125-22.6079712-0.0078125c0.0000305-0.0553741,0.0000305-0.110733,0.000061-0.1661072
		c-6.5445557,0-13.0891724-0.0131989-19.6335907,0.009491c-1.5969849,0.0055389-3.2537384-0.1034851-4.7668457,0.2885284
		c-0.8566589,0.2219696-2.095932,1.3453827-2.1077576,2.0797882c-0.1099396,6.8262634-0.0100403,13.6564331,0.0734863,20.4849548
		C244.6964722,188.4212646,245.7232361,189.2836456,248.1455536,189.2376556z"/>
	<path d="M247.538681,134.2824249c2.2024078,0.1469116,4.4047241,0.3832245,6.6087494,0.4034729
		c10.1973267,0.0936432,20.3951721,0.1596069,30.592865,0.1595001c3.1174316-0.000061,6.2407227-0.1641541,9.3505249-0.3974609
		c2.6248169-0.1969452,3.5002441-1.0674438,3.5062256-3.5434265c0.0141602-5.8580627,0.0011902-11.7191925-0.1793213-17.5735931
		c-0.1111755-3.6054459-0.6734009-4.0161438-4.2579041-4.0250168c-7.3083801-0.0180206-14.6167603-0.0054092-21.9251404-0.0054092
		c-0.0000305,0.011795-0.000061,0.0235672-0.0000916,0.0353394c-2.3597107,0-4.7196045-0.0157318-7.0791321,0.0032349
		c-5.1741028,0.0416412-10.3489075,0.0609741-15.5217743,0.1690063c-2.7635956,0.0576859-3.7816925,0.8998413-3.8149414,3.1657639
		c-0.0903168,6.1582413-0.0945129,12.3177185-0.131546,18.4767227
		C244.6756744,133.0685577,245.5912476,134.1525269,247.538681,134.2824249z"/>
	<path d="M438.5520935,175.0196075c4.6847229-1.1776581,9.4899902-1.4065857,14.1922607-2.9129639
		c9.578125-3.0683289,16.7096863-9.3573151,23.1575012-16.3863068c5.0774841-5.5351105,8.807251-12.1888885,9.7158508-19.9833069
		c0.0516663-0.442749,0.1700134-0.9403839,0.4268799-1.2866669c2.1384277-2.8823547,1.5020447-6.282135,1.6617432-9.4772186
		c0.1163025-2.3270874-1.197998-3.1296692-3.5672302-2.9409409c-1.4331665,0.1141663-2.8796997,0.0563736-4.3201599,0.0828476
		c-1.7333374,0.0317917-3.4685669,0.0324402-5.1994019,0.1179047c-1.7292786,0.0853806-3.4533081,0.3476639-5.1813354,0.3653717
		c-1.3612976,0.0139771-2.7763672-0.5032272-4.0716248-0.2642365c-1.0161743,0.1875-2.3738403,0.9685211-2.7333374,1.8364487
		c-1.3560181,3.2738724-2.3445435,6.6986313-3.5223694,10.0486832c-0.2716675,0.7726746-0.5972595,1.6252899-1.1564331,2.1811981
		c-2.7978821,2.7814484-5.4772644,5.7433929-8.5917358,8.1281433c-3.2329102,2.4755096-6.7667236,4.7597809-11.2312927,4.2879333
		c-2.1492004-0.2271576-3.1299133,0.8658905-3.1482239,2.9083862c-0.0306091,3.4219055-0.0083618,6.8442841-0.0083618,10.2664948
		c-0.0096436,0.0003204-0.0192566,0.0006256-0.0289001,0.0009308c0,3.3452301-0.04422,6.6912079,0.0141296,10.0354004
		C435.0058289,174.6493835,435.9950256,175.662323,438.5520935,175.0196075z"/>
	<path d="M504.4632874,146.7809753c0.2489929,1.1739044,1.1025696,2.2733154,1.1461182,3.4267883
		c0.1215515,3.2207184,1.4336548,5.8968353,2.7863159,8.7624817c3.766571,7.9792175,9.4003601,14.3491974,16.2885437,19.5499268
		c4.868103,3.6755371,9.9320679,7.2576599,16.4050903,7.9550781c3.4454956,0.3712463,6.8430786,1.2871399,10.2267456,2.1043701
		c3.4273682,0.8277588,4.3909912,0.2908173,4.4160767-3.242218c0.0429688-6.0760193-0.1703491-12.1538239-0.1235962-18.2297211
		c0.0193481-2.5202789-0.8912964-3.9451599-3.3850708-4.6109772c-2.7753906-0.7410431-5.7676392-1.3132782-8.1384888-2.7995453
		c-5.8567505-3.6716461-11.2108765-7.9985199-13.3772583-15.0498047c-0.1083374-0.3526306-0.4318237-0.6347656-0.569397-0.9835205
		c-0.6327515-1.6048126-1.4217529-3.1786957-1.8053589-4.8441315c-0.5977173-2.5951691-1.6595459-3.4328918-4.3026733-3.1848602
		c-3.5441895,0.3325958-7.1008301,0.5322571-10.6521606,0.7889862c-0.0064697-0.1942749-0.0130615-0.3885498-0.0195923-0.58284
		c-2.4311829,0-4.8652039,0.0721741-7.2926636-0.0223694c-2.014679-0.0784607-3.2234497,0.8503113-3.0427246,2.7626495
		C503.2835693,141.3363342,503.8873901,144.0657501,504.4632874,146.7809753z"/>
</g>
</svg>
